HIERARCHY
ROOT Hips
{
  OFFSET 0 0 0
  CHANNELS 6 Xposition Yposition Zposition Zrotation Yrotation Xrotation
  JOINT LeftThigh
  {
    OFFSET 8.409438 0 -5.917753
    CHANNELS 3 Zrotation Yrotation Xrotation
    JOINT LeftLeg
    {
      OFFSET 0 0 -42.358652
      CHANNELS 3 Zrotation Yrotation Xrotation
      JOINT LeftFoot
      {
        OFFSET 0 0 -39.357303
        CHANNELS 3 Zrotation Yrotation Xrotation
      }
    }
  }
  JOINT RightThigh
  {
    OFFSET -8.409438 0 -5.917753
    CHANNELS 3 Zrotation Yrotation Xrotation
    JOINT RightLeg
    {
      OFFSET 0 0 -42.358652
      CHANNELS 3 Zrotation Yrotation Xrotation
      JOINT RightFoot
      {
        OFFSET 0 0 -39.357303
        CHANNELS 3 Zrotation Yrotation Xrotation
      }
    }
  }
  JOINT SpineLow
  {
    OFFSET 0 0 4.719101
    CHANNELS 3 Zrotation Yrotation Xrotation
    JOINT SpineMid
    {
      OFFSET 0 0 12.899191
      CHANNELS 3 Zrotation Yrotation Xrotation
      JOINT Chest
      {
        OFFSET 0 0 12.899191
        CHANNELS 3 Zrotation Yrotation Xrotation
        JOINT LeftShoulder
        {
          OFFSET 7.550562 1.41573 9.438202
          CHANNELS 3 Zrotation Yrotation Xrotation
          JOINT LeftArm
          {
            OFFSET 9.155056 0 4.247191
            CHANNELS 3 Zrotation Yrotation Xrotation
            JOINT LeftForearm
            {
              OFFSET 0 0 25.771955
              CHANNELS 3 Zrotation Yrotation Xrotation
              JOINT LeftHand
              {
                OFFSET 0 0 25.197169
                CHANNELS 3 Zrotation Yrotation Xrotation
              }
            }
          }
        }
        JOINT RightShoulder
        {
          OFFSET -7.550562 1.41573 9.438202
          CHANNELS 3 Zrotation Yrotation Xrotation
          JOINT RightArm
          {
            OFFSET -9.155056 0 4.247191
            CHANNELS 3 Zrotation Yrotation Xrotation
            JOINT RightForearm
            {
              OFFSET 0 0 -25.771955
              CHANNELS 3 Zrotation Yrotation Xrotation
              JOINT RightHand
              {
                OFFSET 0 0 -25.197169
                CHANNELS 3 Zrotation Yrotation Xrotation
              }
            }
          }
        }
        JOINT Neck
        {
          OFFSET 0 0 15.101124
          CHANNELS 3 Zrotation Yrotation Xrotation
          JOINT Head
          {
            OFFSET 0 0 11.325843
            CHANNELS 3 Zrotation Yrotation Xrotation
            End Site
            {
              OFFSET 0 0 14.157303
            }
          }
        }
      }
    }
  }
}
MOTION
Frames: 14
Frame Time: 0.0
0.0  89.887642  0.0  -0.148428  11.444615  -91.886008  6.916041  -16.68912  -9.554284  -14.844304  5.216872  20.465402  -4.369815  -2.52402  0.047154  -17.705504  9.324935  -9.29249  -12.01171  6.901647  16.837305  -1.662816  1.417446  -0.852796  -0.189731  0.73581  0.6068  -0.500251  2.015866  1.653312  -0.500251  2.015866  1.653313  -3.475958  8.902593  12.584493  137.436366  44.560529  -162.654678  -17.173874  4.138837  36.929213  79.116678  -8.031961  -0.232791  -7.309833  -16.829758  23.963194  90.65311  42.25352  41.438386  2.028067  12.142628  -38.875521  86.77739  15.791355  -25.72828  -15.394688  -2.192137  1.835133  -11.538152  -1.691629  1.321913  
0.0  89.887642  0.0  -0.10464  11.561722  -91.876785  7.287393  -16.651116  -9.812797  -15.357362  5.486145  20.608392  -4.346578  -2.526558  0.066926  -17.888767  9.394663  -9.617573  -11.776495  6.924166  17.390784  -1.639699  1.451848  -0.854868  -0.191429  0.741159  0.606573  -0.504769  2.030525  1.652605  -0.504769  2.030525  1.652605  -3.441523  8.884586  12.734941  137.094905  44.377479  -162.63206  -17.260869  3.936702  36.659417  79.047892  -8.097715  -0.163789  -7.350554  -16.826403  24.060757  90.728121  42.338368  41.136261  2.417173  12.346179  -37.948788  86.759904  16.196063  -25.746782  -15.481471  -2.228557  1.837432  -11.603068  -1.719298  1.322408  
0.0  89.887642  0.0  -0.024173  11.701376  -91.77207  7.474066  -16.542839  -10.246998  -15.835709  5.806692  20.778672  -4.227708  -2.454743  0.12288  -18.167708  9.452713  -10.051329  -11.228312  6.930603  18.014799  -1.799916  1.461911  -0.886469  -0.168556  0.742266  0.598411  -0.442457  2.032928  1.630986  -0.442457  2.032928  1.630986  -3.601562  8.908186  12.819841  136.908061  44.088599  -162.630699  -17.119445  3.656508  36.591195  79.019391  -8.102649  -0.043932  -7.771362  -16.732687  24.071768  90.869185  42.11988  40.77383  2.475506  12.391156  -37.247492  86.670682  16.52947  -25.771935  -15.594423  -2.233838  1.814115  -11.68783  -1.723026  1.304375  
0.0  89.887642  0.0  0.029211  11.839554  -91.753504  7.693434  -16.535958  -10.51631  -16.245393  6.116257  20.945707  -4.195869  -2.447989  0.154009  -18.314141  9.544393  -10.395482  -11.08942  6.987017  18.607985  -1.821266  1.481191  -0.932821  -0.158521  0.735371  0.592526  -0.415369  2.013799  1.615243  -0.415369  2.013799  1.615243  -3.632131  8.969073  12.944402  136.642407  43.917983  -162.585213  -16.965655  3.36985  36.449198  79.009769  -8.039482  0.133737  -8.005488  -16.515475  24.193639  90.346396  42.031485  39.922579  2.579489  12.371792  -36.704868  86.52416  16.763254  -25.795457  -15.724599  -2.217701  1.818805  -11.785504  -1.711444  1.307854  
0.0  89.887642  0.0  0.082459  11.951353  -91.678855  7.6774  -16.476087  -10.916083  -16.309635  6.410683  21.336138  -4.211551  -2.420907  0.12957  -18.241167  9.519882  -10.700612  -11.270315  7.186411  19.094207  -1.789291  1.529602  -0.981893  -0.130161  0.736109  0.577446  -0.338276  2.01505  1.574873  -0.338276  2.01505  1.574873  -3.835584  8.930919  13.053753  136.534918  43.655834  -162.502228  -16.542244  3.016202  36.540969  78.869418  -7.86505  0.165473  -8.287624  -16.360737  24.338688  89.901042  41.80666  39.184151  2.52009  12.317502  -36.247403  86.272886  16.883367  -25.644818  -15.812665  -2.214697  1.856941  -11.851425  -1.710455  1.336245  
0.0  89.887642  0.0  0.122888  12.116053  -91.702753  7.640144  -16.478484  -11.100018  -16.5659  6.688104  21.503162  -4.132914  -2.412958  0.177703  -18.351264  9.5753  -10.962797  -11.186132  7.304034  19.648779  -1.736371  1.545905  -1.047809  -0.122285  0.73904  0.579097  -0.316622  2.022882  1.579615  -0.316622  2.022882  1.579615  -3.96484  8.95659  13.187736  136.434009  43.605702  -162.427749  -16.362976  2.772755  36.486994  78.857827  -7.794768  0.271974  -8.594439  -16.228911  24.430412  89.452308  41.64536  38.500061  2.550075  12.306059  -35.870976  86.126  17.010682  -25.493638  -15.946186  -2.240896  1.881965  -11.951353  -1.731204  1.353869  
0.0  89.887642  0.0  0.174813  12.211124  -91.691705  7.558642  -16.435192  -11.333474  -16.709207  6.968396  21.737146  -4.083221  -2.376999  0.175907  -18.589891  9.592753  -11.31072  -10.603064  7.337218  20.263283  -1.835163  1.530055  -1.110428  -0.1216  0.74547  0.577561  -0.314645  2.040432  1.575412  -0.314645  2.040432  1.575412  -4.012036  8.968698  13.305723  136.277855  43.578332  -162.398442  -16.117884  2.54567  36.673302  78.655318  -7.563604  0.182166  -8.801208  -16.083784  24.47109  89.19213  41.534015  37.956363  2.393652  12.231107  -35.384414  86.237996  17.153283  -25.388624  -15.923565  -2.254776  1.91429  -11.934212  -1.742392  1.377844  
0.0  89.887642  0.0  0.228275  12.43256  -91.697829  7.315724  -16.416564  -11.472218  -16.855119  7.205101  21.897624  -4.034156  -2.375491  0.215813  -18.718701  9.71174  -11.575173  -10.50226  7.379716  20.806082  -1.743013  1.511268  -1.210291  -0.143875  0.749559  0.58514  -0.375214  2.052179  1.595428  -0.375214  2.052179  1.595428  -4.077302  9.041455  13.371423  136.250704  43.636796  -162.360605  -16.173864  2.463251  36.667238  78.627378  -7.537014  0.241642  -8.858431  -16.018943  24.466465  89.093744  41.482971  37.662564  2.497451  12.216  -34.916521  86.300191  17.170015  -25.135975  -15.975599  -2.267819  1.911589  -11.973183  -1.752285  1.375287  
0.0  89.887642  0.0  0.302037  12.637282  -91.613979  6.940944  -16.361104  -11.742645  -17.132682  7.511025  21.931748  -3.811595  -2.277202  0.347118  -19.462949  9.759881  -12.188309  -9.741817  7.40852  21.580856  -1.535212  1.424838  -1.368368  -0.147434  0.748346  0.586158  -0.384941  2.048957  1.598106  -0.384941  2.048957  1.598106  -4.236519  9.149958  13.337973  136.139333  43.603123  -162.400933  -16.076489  2.319606  36.881031  78.738848  -7.562871  0.451827  -9.0129  -15.924719  24.381564  88.998599  41.400634  37.564176  2.46141  12.324316  -34.422043  86.413239  17.104538  -24.802053  -16.011396  -2.238745  1.894352  -12.000219  -1.730127  1.362992  
0.0  89.887642  0.0  0.441386  12.996454  -91.534563  6.450699  -16.26711  -11.929752  -17.249018  7.783242  22.117139  -3.736493  -2.274194  0.405411  -19.710704  10.029889  -12.614305  -9.908759  7.50219  22.267047  -1.291946  1.341025  -1.539052  -0.198372  0.767366  0.583441  -0.523841  2.102149  1.588962  -0.523841  2.10215  1.588962  -4.24034  9.21733  13.322231  136.04858  43.647023  -162.418963  -16.274214  2.282177  36.846125  78.729861  -7.527327  0.540957  -8.987979  -15.83483  24.358687  88.639604  41.377208  37.09649  2.865934  12.596474  -33.887275  86.527421  17.091954  -24.52688  -16.039752  -2.235952  1.902753  -12.021468  -1.728345  1.369271  
0.0  89.887642  0.0  0.571558  13.375732  -91.334247  5.838206  -16.150984  -12.31579  -17.585152  8.123768  22.177802  -3.481693  -2.15675  0.575096  -20.159196  10.288622  -13.328688  -9.950049  7.628452  23.1894  -1.177438  1.278679  -1.711863  -0.238869  0.780306  0.560291  -0.635006  2.138268  1.524262  -0.635006  2.138268  1.524262  -4.266552  9.284502  13.320561  135.993543  43.60817  -162.406673  -16.151947  2.144228  37.045718  78.522022  -7.316431  0.546692  -9.144001  -15.72539  24.343555  88.27824  41.306131  36.756705  2.917342  12.819094  -33.333528  86.782828  17.301688  -24.359552  -16.071505  -2.202858  1.927222  -12.045342  -1.704253  1.388401  
0.0  89.887642  0.0  0.816402  13.890004  -91.085783  5.090599  -15.967615  -12.75366  -17.692893  8.550032  22.517738  -3.345059  -2.156435  0.650674  -20.458871  10.699541  -14.125857  -10.508309  7.94826  24.309547  -1.102949  1.242429  -1.925938  -0.30229  0.816189  0.534429  -0.808478  2.237488  1.451089  -0.808478  2.237488  1.451089  -4.258584  9.292336  13.313793  135.905026  43.654135  -162.33674  -16.275353  2.075917  36.977136  78.515742  -7.25671  0.675091  -9.217854  -15.622487  24.358138  87.731684  41.309972  36.184103  3.222573  12.960547  -33.004304  86.85554  17.292041  -24.113943  -16.163929  -2.205033  1.943067  -12.11459  -1.706614  1.399914  
0.0  89.887642  0.0  1.111896  14.592145  -90.712316  4.090582  -15.740762  -13.432534  -17.782212  9.04617  22.917568  -3.154612  -2.058467  0.774801  -22.332393  10.751197  -15.742012  -9.67512  8.541064  26.017786  -1.170012  1.200646  -2.222452  -0.396067  0.855261  0.495154  -1.065453  2.345699  1.339919  -1.065453  2.345699  1.339919  -4.215848  9.298139  13.314224  135.93814  43.67977  -162.210269  -16.204653  1.950573  37.082265  78.689268  -7.223725  0.908885  -9.437564  -15.489733  24.238565  87.431626  41.132856  35.881641  2.951309  12.962334  -32.777357  87.088704  17.438677  -23.98166  -16.229794  -2.200965  1.937544  -12.16402  -1.703635  1.39565  
0.0  89.887642  0.0  1.524632  15.497514  -90.308349  2.959136  -15.490076  -14.16639  -17.70688  9.709049  23.480745  -3.034956  -2.057272  0.868621  -22.434683  11.248107  -16.750514  -10.524177  9.285398  27.5265  -1.124763  1.217969  -2.491423  -0.522214  0.911098  0.463562  -1.41051  2.500171  1.247899  -1.41051  2.500171  1.247899  -4.116603  9.282721  13.298862  135.899049  43.773524  -162.038341  -16.317235  1.881268  37.082866  78.717981  -7.132135  0.943508  -9.409897  -15.350993  24.107868  86.822454  41.052673  35.358458  2.882325  12.938542  -32.754097  87.106911  17.326476  -23.695877  -16.342487  -2.225587  1.878267  -12.248625  -1.720906  1.350104  
